<?xml version="1.0" encoding="utf-8" ?>
<svg xmlns="http://www.w3.org/2000/svg" xmlns:xlink="http://www.w3.org/1999/xlink" width="24" height="24" viewBox="0 0 24 24">
	<defs>
		<clipPath id="clipPath0824247939">
			<path d="M0 0L24 0L24 24L0 24L0 0Z" fill-rule="nonzero" transform="matrix(1 0 0 1 0 0)"/>
		</clipPath>
	</defs>
	<g clip-path="url(#clipPath0824247939)">
		<path d="M21.1812 0L12.091 5.62069L12.9966 6.05264L21.625 0.717562L21.1812 0ZM2.27812 1.87472L1.91494 2.63625L15.3491 9.04449L15.4142 9.17175C15.5662 9.46922 15.8678 9.75881 16.245 9.93924C16.6468 10.1309 17.051 10.1909 17.3529 10.1444C17.655 10.0979 17.8382 9.97425 17.94 9.76097C18.0417 9.54769 18.018 9.36769 17.8591 9.12333C17.7002 8.87897 17.3846 8.61323 16.9715 8.41617C16.5936 8.23603 16.1781 8.18363 15.8507 8.25272L15.7109 8.28225L2.27812 1.87472ZM7.95455 6.45206C6.03567 6.58861 4.32478 6.85725 2.98186 7.21533C1.98975 7.47989 1.1978 7.7962 0.687187 8.11814C0.176578 8.44013 0 8.72855 0 8.92903C0 9.12952 0.176578 9.41794 0.687187 9.73992C1.19784 10.0619 1.98975 10.3782 2.98186 10.6427C4.96608 11.1719 7.75191 11.5072 10.8281 11.5072C13.1334 11.5072 15.2756 11.3189 17.0396 11.0018C16.6589 10.9866 16.264 10.8832 15.8817 10.7008C15.4033 10.4719 15.0089 10.1203 14.7501 9.69352L11.342 8.06789L9.63117 9.12567C9.42023 9.57801 9.06628 9.97041 8.61576 10.2496C8.11322 10.5603 7.57031 10.7219 7.05544 10.6992C6.54051 10.6765 6.03384 10.4421 5.74969 9.9825C5.46553 9.52298 5.49815 8.9655 5.72554 8.51559C5.95289 8.06569 6.34898 7.68309 6.84047 7.3792C7.29206 7.1002 7.80178 6.95855 8.30128 6.97191L8.6249 6.77175L7.95455 6.45206ZM13.9279 6.46894L13.9024 6.48469L15.8383 7.40813C16.3335 7.34063 16.8556 7.42617 17.3346 7.65455C17.8563 7.90327 18.2916 8.24067 18.5664 8.6633C18.8413 9.08583 18.9341 9.63656 18.7014 10.1243C18.5571 10.4269 18.3181 10.6525 18.0358 10.799C18.2561 10.7489 18.4705 10.6971 18.6744 10.6427C19.6665 10.3782 20.4585 10.0619 20.9691 9.73992C21.4797 9.41794 21.6562 9.12952 21.6562 8.92903C21.6562 8.72855 21.4797 8.44013 20.9691 8.11814C20.4584 7.7962 19.6665 7.47989 18.6744 7.21533C17.3846 6.87141 15.7547 6.61017 13.9279 6.46894ZM9.53058 7.2038L8.52281 7.82691L8.38064 7.81284C8.04773 7.77966 7.64034 7.87678 7.28423 8.09681C6.89484 8.33761 6.60998 8.63606 6.47855 8.89612C6.34711 9.15628 6.34308 9.33778 6.46739 9.53878C6.59166 9.73978 6.78717 9.84281 7.09251 9.85627C7.39781 9.86972 7.79325 9.76613 8.17172 9.53208C8.52703 9.31181 8.79539 8.99124 8.91431 8.679L8.96522 8.54541L10.4363 7.63584L9.53058 7.2038ZM0.686344 10.7062L1.9492 12.8108L3.51061 11.6398C3.38564 11.612 3.26096 11.5829 3.13657 11.5526C3.01219 11.5223 2.88811 11.4908 2.76436 11.458C1.95098 11.2411 1.2525 10.9926 0.686344 10.7062ZM20.9698 10.7062C20.4037 10.9926 19.7051 11.2411 18.8918 11.458C18.5671 11.5446 18.2222 11.6251 17.8629 11.7006L19.6875 12.8433L20.9698 10.7062ZM21.6562 11.2021L20.8324 12.5752C20.8497 12.5679 20.867 12.5604 20.8843 12.5528C20.9016 12.5452 20.9188 12.5375 20.9359 12.5297C21.2147 12.4022 21.4166 12.268 21.5278 12.1574C21.639 12.0467 21.6563 11.9847 21.6563 11.929L21.6562 11.2021ZM0 11.2022L0 11.929C0 11.9847 0.0172969 12.0467 0.128437 12.1574C0.239625 12.268 0.441516 12.4022 0.720328 12.5297C0.753703 12.545 0.788297 12.5602 0.823781 12.5752L0 11.2022ZM4.6237 11.8597L2.90166 13.1513C2.9895 13.1681 3.07697 13.185 3.16763 13.2012C4.18612 13.3822 5.38125 13.5195 6.66506 13.6125L4.97086 11.9183C4.91294 11.9089 4.85505 11.8993 4.79719 11.8896C4.73933 11.8798 4.6815 11.8698 4.6237 11.8597ZM15.5923 12.0724C14.498 12.2073 13.314 12.2968 12.0694 12.3327L13.8075 13.6362L15.5923 12.0724ZM16.8701 12.0745L15.1266 13.6022C16.3588 13.5094 17.5062 13.3758 18.4886 13.2012C18.536 13.1927 18.5811 13.1837 18.6277 13.1751L16.8701 12.0745ZM6.35283 12.1072L7.86769 13.622L9.58687 12.3327C8.45128 12.3 7.36551 12.2229 6.35283 12.1072ZM10.8281 12.4564L9.12553 13.7333C9.68916 13.7489 10.2585 13.7572 10.8281 13.7572C11.3977 13.7572 11.9671 13.7489 12.5307 13.7333L10.8281 12.4564ZM0 13.1066L0 19.429C0 19.6868 0.201562 19.9774 0.754219 20.2932C0.939516 20.3991 1.15875 20.5019 1.40625 20.6004L1.40625 13.6695C1.01813 13.5581 0.670641 13.4348 0.369516 13.2972C0.237656 13.2368 0.114516 13.1739 0 13.1066ZM21.6562 13.1066C21.5417 13.1738 21.4186 13.2368 21.2867 13.2971C20.9856 13.4347 20.6381 13.558 20.25 13.6695L20.25 20.6004C20.4975 20.5019 20.7167 20.3991 20.902 20.2932C21.4547 19.9774 21.6562 19.6868 21.6562 19.429L21.6562 13.1066ZM2.25 13.8804L2.25 20.8877C2.54044 20.9728 2.85319 21.0528 3.1853 21.1267C4.39073 21.3945 5.84728 21.5856 7.40625 21.6985L7.40625 14.5061C5.80012 14.415 4.29094 14.2578 3.01988 14.0318C2.89108 14.0091 2.76253 13.9851 2.6342 13.9599C2.50588 13.9346 2.37781 13.9082 2.25 13.8804ZM19.4062 13.8804C19.2784 13.9082 19.1504 13.9347 19.0221 13.9599C18.8937 13.9852 18.7652 14.0092 18.6364 14.0319C17.3654 14.2579 15.8561 14.415 14.25 14.5062L14.25 21.6985C15.809 21.5856 17.2655 21.3945 18.471 21.1266C18.8031 21.0528 19.1158 20.9728 19.4062 20.8877L19.4062 13.8804ZM8.25 14.5479L8.25 21.7519C9.09506 21.7969 9.96173 21.8196 10.8281 21.8196C11.6945 21.8196 12.5612 21.7969 13.4062 21.7519L13.4062 14.5479C12.56 14.5832 11.6944 14.6009 10.8281 14.6009C9.96187 14.6009 9.09624 14.5832 8.25 14.5479Z" fill-rule="nonzero" transform="matrix(1 0 0 1 1.17188 1.19597)" fill="rgb(139, 30, 63)"/>
	</g>
</svg>
